<svg width="1280" height="720" viewBox="0 0 1280 720" fill="none" xmlns="http://www.w3.org/2000/svg">
  <rect width="1280" height="720" fill="#07111F"/>
  <defs>
    <linearGradient id="g" x1="220" x2="1020" y1="92" y2="620" gradientUnits="userSpaceOnUse"><stop stop-color="#67E8F9"/><stop offset=".55" stop-color="#3B82F6"/><stop offset="1" stop-color="#A78BFA"/></linearGradient>
    <radialGradient id="r" cx="0" cy="0" r="1" gradientUnits="userSpaceOnUse" gradientTransform="translate(640 360) scale(520 300)"><stop stop-color="#67E8F9" stop-opacity=".22"/><stop offset="1" stop-color="#07111F" stop-opacity="0"/></radialGradient>
  </defs>
  <rect width="1280" height="720" fill="url(#r)"/>
  <path d="M122 570H1158M122 130H1158" stroke="#F8FAFC" stroke-opacity=".08"/>
  <rect x="220" y="96" width="282" height="528" rx="34" fill="#0B1020" stroke="url(#g)" stroke-width="4"/>
  <rect x="250" y="146" width="222" height="82" rx="8" fill="#67E8F9" fill-opacity=".12" stroke="#67E8F9" stroke-opacity=".36"/>
  <rect x="250" y="254" width="222" height="56" rx="8" fill="#F8FAFC" fill-opacity=".07"/>
  <rect x="250" y="330" width="222" height="56" rx="8" fill="#F8FAFC" fill-opacity=".07"/>
  <rect x="250" y="406" width="222" height="110" rx="8" fill="#3B82F6" fill-opacity=".13" stroke="#3B82F6" stroke-opacity=".35"/>
  <circle cx="362" cy="568" r="17" fill="#67E8F9" fill-opacity=".3" stroke="#67E8F9"/>
  <g stroke="url(#g)" stroke-width="3" stroke-linecap="round">
    <path d="M548 232H754C803 232 834 263 834 312V394C834 443 865 474 914 474H1064"/>
    <path d="M548 360H694C737 360 764 387 764 430V488"/>
    <path d="M548 488H704"/>
  </g>
  <g fill="#0B1020" stroke="#67E8F9" stroke-opacity=".65">
    <rect x="786" y="174" width="280" height="92" rx="8"/>
    <rect x="918" y="432" width="188" height="92" rx="8"/>
    <rect x="650" y="516" width="196" height="76" rx="8"/>
  </g>
  <g font-family="Inter, Arial, sans-serif" fill="#F8FAFC">
    <text x="274" y="191" font-size="20" letter-spacing="3">DISCOVER</text>
    <text x="820" y="225" font-size="20" letter-spacing="3">OPPORTUNITIES</text>
    <text x="954" y="484" font-size="20" letter-spacing="3">PROFILE</text>
    <text x="690" y="565" font-size="18" letter-spacing="3">EVENTS</text>
    <text x="84" y="82" font-size="24" letter-spacing="7" opacity=".72">VOLUNTEER APP</text>
  </g>
</svg>
